<svg width="41" height="29" viewBox="0 0 41 29" fill="none" xmlns="http://www.w3.org/2000/svg">
<path fill-rule="evenodd" clip-rule="evenodd" d="M12.124 -0.0107422C13.7848 -0.0108469 15.4063 0.501975 16.7726 1.45948C18.139 2.41698 19.1854 3.77376 19.7727 5.34925C20.3599 6.92475 20.4601 8.64425 20.06 10.2789C19.6598 11.9136 18.7783 13.3859 17.5326 14.5C18.7783 15.614 19.6598 17.0864 20.06 18.7211C20.4601 20.3557 20.3599 22.0752 19.7727 23.6507C19.1854 25.2262 18.139 26.583 16.7726 27.5405C15.4063 28.498 13.7848 29.0108 12.124 29.0107H3.94757C2.86331 29.0107 1.82346 28.5739 1.05678 27.7964C0.290094 27.0189 -0.140625 25.9644 -0.140625 24.8648V4.13518C-0.140625 3.03561 0.290094 1.98108 1.05678 1.20357C1.82346 0.426059 2.86331 -0.0107422 3.94757 -0.0107422H12.124ZM31.5429 8.2811C36.8718 8.2811 40.7413 13.1899 40.7413 18.6459C40.7412 19.1536 40.5574 19.6437 40.2247 20.0231C39.892 20.4026 39.4336 20.645 38.9364 20.7044L38.6972 20.7189H26.7188C27.4506 23.2562 29.4845 24.8648 31.5429 24.8648C33.7505 24.8648 35.0015 23.8055 36.1217 22.4809C36.474 22.0631 36.9757 21.8043 37.5162 21.7615C38.0567 21.7188 38.5918 21.8955 39.0038 22.2529C39.4158 22.6102 39.671 23.1189 39.7132 23.6671C39.7553 24.2152 39.5811 24.7579 39.2287 25.1757L39.01 25.4286L38.5419 25.9386C37.066 27.4767 34.9075 29.0107 31.5429 29.0107C26.2139 29.0107 22.3444 24.1019 22.3444 18.6459C22.3444 13.1899 26.2139 8.2811 31.5429 8.2811ZM12.124 16.5729H3.94757V24.8648H12.124C13.1848 24.8696 14.206 24.456 14.9717 23.7114C15.7374 22.9668 16.1878 21.9496 16.2276 20.8745C16.2674 19.7994 15.8935 18.7507 15.185 17.95C14.4765 17.1493 13.4888 16.6592 12.4306 16.5833L12.124 16.5729ZM31.5429 12.427C29.4845 12.427 27.4506 14.0356 26.7188 16.5729H36.3669C35.6352 14.0356 33.6013 12.427 31.5429 12.427ZM12.124 4.13518H3.94757V12.427H12.124C13.2082 12.427 14.2481 11.9902 15.0147 11.2127C15.7814 10.4352 16.2122 9.38067 16.2122 8.2811C16.2122 7.18154 15.7814 6.127 15.0147 5.34949C14.2481 4.57198 13.2082 4.13518 12.124 4.13518ZM34.609 2.06222C35.1511 2.06222 35.6711 2.28062 36.0544 2.66938C36.4378 3.05813 36.6531 3.5854 36.6531 4.13518C36.6531 4.68496 36.4378 5.21223 36.0544 5.60099C35.6711 5.98974 35.1511 6.20814 34.609 6.20814H28.4767C27.9346 6.20814 27.4147 5.98974 27.0313 5.60099C26.648 5.21223 26.4326 4.68496 26.4326 4.13518C26.4326 3.5854 26.648 3.05813 27.0313 2.66938C27.4147 2.28062 27.9346 2.06222 28.4767 2.06222H34.609Z" fill="#F8F8F8"/>
</svg>
