<svg width="50" height="50" viewBox="0 0 50 50" fill="none" xmlns="http://www.w3.org/2000/svg">
<path fill-rule="evenodd" clip-rule="evenodd" d="M49.0522 6.15438C49.3524 5.86476 49.5907 5.52086 49.7533 5.14232C49.9159 4.76378 49.9997 4.35801 50 3.94817C50.0003 3.53833 49.9169 3.13246 49.7548 2.75373C49.5927 2.37499 49.3549 2.03081 49.055 1.74084C48.7552 1.45086 48.3991 1.22077 48.0072 1.0637C47.6153 0.906629 47.1951 0.825657 46.7708 0.825405C46.3465 0.825153 45.9263 0.905626 45.5342 1.06223C45.142 1.21884 44.7857 1.4485 44.4855 1.73812L24.9996 20.5588L5.51932 1.73812C4.91299 1.15249 4.09063 0.823486 3.23314 0.823486C2.37566 0.823486 1.5533 1.15249 0.946966 1.73812C0.340633 2.32376 6.38875e-09 3.11804 0 3.94625C-6.38875e-09 4.77446 0.340633 5.56875 0.946966 6.15438L20.4328 24.9696L0.946966 43.7848C0.64674 44.0748 0.408589 44.419 0.246108 44.7979C0.0836273 45.1768 0 45.5828 0 45.9929C0 46.403 0.0836273 46.8091 0.246108 47.188C0.408589 47.5668 0.64674 47.9111 0.946966 48.2011C1.5533 48.7867 2.37566 49.1157 3.23314 49.1157C3.65773 49.1157 4.07815 49.0349 4.47042 48.878C4.86268 48.7211 5.2191 48.491 5.51932 48.2011L24.9996 29.3804L44.4855 48.2011C45.0918 48.786 45.9139 49.1143 46.7708 49.1138C47.6278 49.1133 48.4494 48.784 49.055 48.1983C49.6606 47.6127 50.0005 46.8187 50 45.991C49.9995 45.1633 49.6585 44.3697 49.0522 43.7848L29.5663 24.9696L49.0522 6.15438Z" fill="white"/>
</svg>
