<svg width="50" height="49" viewBox="0 0 50 49" fill="none" xmlns="http://www.w3.org/2000/svg">
<path fill-rule="evenodd" clip-rule="evenodd" d="M49.0522 5.3309C49.3524 5.04128 49.5907 4.69738 49.7533 4.31884C49.9159 3.94029 49.9997 3.53452 50 3.12468C50.0003 2.71485 49.9169 2.30898 49.7548 1.93024C49.5927 1.55151 49.3549 1.20732 49.055 0.917349C48.7552 0.627373 48.3991 0.397283 48.0072 0.240213C47.6153 0.0831427 47.1951 0.00217017 46.7708 0.00191828C46.3465 0.00166638 45.9263 0.0821401 45.5342 0.238745C45.142 0.395349 44.7857 0.625017 44.4855 0.914636L24.9996 19.7353L5.51932 0.914636C4.91299 0.329004 4.09063 -6.17064e-09 3.23314 0C2.37566 6.17064e-09 1.5533 0.329004 0.946966 0.914636C0.340633 1.50027 6.38875e-09 2.29456 0 3.12277C-6.38875e-09 3.95097 0.340633 4.74526 0.946966 5.3309L20.4328 24.1461L0.946966 42.9613C0.64674 43.2513 0.408589 43.5955 0.246108 43.9744C0.0836273 44.3533 0 44.7594 0 45.1694C0 45.5795 0.0836273 45.9856 0.246108 46.3645C0.408589 46.7433 0.64674 47.0876 0.946966 47.3776C1.5533 47.9632 2.37566 48.2922 3.23314 48.2922C3.65773 48.2922 4.07815 48.2114 4.47042 48.0545C4.86268 47.8976 5.2191 47.6675 5.51932 47.3776L24.9996 28.5569L44.4855 47.3776C45.0918 47.9625 45.9139 48.2908 46.7708 48.2903C47.6278 48.2898 48.4494 47.9605 49.055 47.3749C49.6606 46.7892 50.0005 45.9952 50 45.1675C49.9995 44.3398 49.6585 43.5462 49.0522 42.9613L29.5663 24.1461L49.0522 5.3309Z" fill="black"/>
</svg>
