<svg width="29" height="29" viewBox="0 0 29 29" fill="none" xmlns="http://www.w3.org/2000/svg">
<path d="M14.5 0C6.496 0 0 6.496 0 14.5C0 22.504 6.496 29 14.5 29C22.4895 29 29 22.504 29 14.5C29 6.496 22.4895 0 14.5 0ZM24.0772 6.6845C25.8617 8.85849 26.8492 11.5773 26.8758 14.3898C26.4683 14.3115 22.3793 13.4777 18.2584 13.9969C18.1642 13.7924 18.0844 13.572 17.9916 13.3516C17.7351 12.747 17.4624 12.1494 17.1738 11.5594C21.7341 9.7034 23.8104 7.0296 24.0772 6.6845ZM14.5 2.13875C17.6465 2.13875 20.5233 3.31905 22.7099 5.25335C22.4895 5.56655 20.6175 8.0678 16.2139 9.71935C14.1854 5.99285 11.9364 2.9406 11.5899 2.46935C12.5437 2.24635 13.5204 2.1354 14.5 2.13875ZM9.23215 3.3031C10.8916 5.60326 12.4246 7.99204 13.8243 10.4589C8.0359 12.0002 2.92465 11.9669 2.3751 11.9669C2.7736 10.0922 3.59978 8.33491 4.78921 6.8321C5.97863 5.32928 7.49914 4.12155 9.23215 3.3031ZM2.10685 14.5145V14.1375C2.64335 14.152 8.64925 14.2318 14.8306 12.3758C15.1931 13.0674 15.5223 13.775 15.8369 14.4826C15.6789 14.5305 15.5063 14.5769 15.3497 14.6247C8.9639 16.6837 5.56655 22.3141 5.2838 22.7868C3.23895 20.5168 2.10619 17.5697 2.10685 14.5145ZM14.5 26.8932C11.7471 26.8979 9.07217 25.9788 6.90345 24.2831C7.12385 23.8264 9.64105 18.982 16.6228 16.5445C16.6547 16.53 16.6707 16.53 16.7011 16.5126C17.8789 19.5509 18.7641 22.6948 19.3444 25.9014C17.8144 26.5597 16.1656 26.8973 14.5 26.8932ZM21.4035 24.7689C21.2787 24.0149 20.6175 20.3972 18.9965 15.9471C22.8825 15.3338 26.2798 16.34 26.7032 16.4821C26.4388 18.1541 25.8314 19.7534 24.9194 21.1794C24.0074 22.6055 22.8103 23.8276 21.4035 24.7689Z" fill="#F8F8F8"/>
</svg>
