<svg width="29" height="29" viewBox="0 0 29 29" fill="none" xmlns="http://www.w3.org/2000/svg">
<path d="M14.5 0C12.5958 0 10.7103 0.374005 8.95109 1.10066C7.19187 1.82732 5.5934 2.89239 4.24695 4.23508C1.52767 6.94675 0 10.6246 0 14.4595C0 20.8505 4.1615 26.2728 9.918 28.1959C10.643 28.3116 10.875 27.8634 10.875 27.473V25.0293C6.8585 25.8969 6.003 23.0917 6.003 23.0917C5.336 21.4144 4.3935 20.9662 4.3935 20.9662C3.074 20.0697 4.495 20.0986 4.495 20.0986C5.945 20.1999 6.7135 21.588 6.7135 21.588C7.975 23.7858 10.1065 23.1351 10.933 22.7881C11.0635 21.8482 11.4405 21.212 11.8465 20.8505C8.6275 20.489 5.249 19.2455 5.249 13.7365C5.249 12.1315 5.8 10.8446 6.7425 9.81797C6.5975 9.45648 6.09 7.9527 6.8875 6.00067C6.8875 6.00067 8.1055 5.61027 10.875 7.47554C12.0205 7.15743 13.2675 6.99837 14.5 6.99837C15.7325 6.99837 16.9795 7.15743 18.125 7.47554C20.8945 5.61027 22.1125 6.00067 22.1125 6.00067C22.91 7.9527 22.4025 9.45648 22.2575 9.81797C23.2 10.8446 23.751 12.1315 23.751 13.7365C23.751 19.26 20.358 20.4746 17.1245 20.8361C17.6465 21.2843 18.125 22.1663 18.125 23.5111V27.473C18.125 27.8634 18.357 28.3261 19.0965 28.1959C24.853 26.2584 29 20.8505 29 14.4595C29 12.5606 28.6249 10.6804 27.8963 8.92606C27.1676 7.17176 26.0995 5.57776 24.753 4.23508C23.4066 2.89239 21.8081 1.82732 20.0489 1.10066C18.2897 0.374005 16.4042 0 14.5 0Z" fill="#F8F8F8"/>
</svg>
