<svg width="491" height="852" viewBox="0 0 491 852" fill="none" xmlns="http://www.w3.org/2000/svg">
<path d="M471.92 832.92C483.918 820.918 490.658 804.642 490.658 787.672C490.658 770.701 483.918 754.426 471.92 742.424L155.12 425.624L471.92 108.824C483.578 96.7533 490.029 80.5867 489.883 63.8062C489.737 47.0256 483.007 30.9735 471.14 19.1074C459.274 7.2413 443.222 0.510565 426.442 0.364746C409.661 0.218927 393.495 6.66976 381.424 18.3279L19.376 380.376C7.37787 392.378 0.637695 408.653 0.637695 425.624C0.637695 442.594 7.37787 458.87 19.376 470.872L381.424 832.92C393.426 844.918 409.702 851.658 426.672 851.658C443.643 851.658 459.918 844.918 471.92 832.92Z" fill="white"/>
</svg>
