<?xml version="1.0" encoding="UTF-8"?>
<svg id="Calque_2" data-name="Calque 2" xmlns="http://www.w3.org/2000/svg" width="419.04" height="294.84" viewBox="0 0 419.04 294.84">
  <defs>
    <style>
      .cls-1 {
        fill: #fff;
        stroke-width: 0px;
      }
    </style>
  </defs>
  <g id="Calque_1-2" data-name="Calque 1">
    <g>
      <path class="cls-1" d="M247.86,32.4c5.4,1.8,8.37,3.6,8.91,5.4l.27,1.08c0,3.78-3.78,9.09-11.34,15.93-30.78,34.56-52.65,61.29-65.61,80.19-3.78,5.4-9.09,13.28-15.93,23.62-6.84,10.35-12.38,18.63-16.6,24.84-4.23,6.21-9.81,14.04-16.74,23.49-6.93,9.45-13.05,17.23-18.36,23.35-5.31,6.12-11.79,12.96-19.44,20.52-7.65,7.56-14.98,13.86-22,18.9-15.84,11.34-32.85,19.71-51.03,25.11-4.68,0-9.13-1.13-13.36-3.38-4.23-2.25-6.43-5.45-6.62-9.58.18-9.72,7.74-21.73,22.68-36.04,14.94-14.31,35.01-25.25,60.21-32.81,3.6-.9,6.12-2.25,7.56-4.05l77.22-92.07,4.05-5.4c.36-.72.54-1.22.54-1.49s-.14-.4-.41-.4-4.28,3.92-12.01,11.75c-7.74,7.83-14.45,14.81-20.12,20.92-5.67,6.12-13.1,13.46-22.27,22-9.18,8.55-20.39,17.01-33.62,25.38-13.23,8.37-24.35,12.56-33.34,12.56-11.88,0-19.26-7.83-22.14-23.49-.54-3.6-.81-7.2-.81-10.8,0-16.2,6.98-33.61,20.93-52.25,13.95-18.63,31.05-35.19,51.3-49.68,20.25-14.49,42.07-26.64,65.48-36.45,23.4-9.81,44.19-14.8,62.37-14.98h.27c5.76,0,10.57,1.94,14.45,5.81,3.87,3.87,5.8,7.25,5.8,10.12,0,.9-.09,1.53-.27,1.89ZM13.5,280.8c0,1.08.45,1.62,1.35,1.62h.54c4.5,0,15.89-8.6,34.15-25.78,18.27-17.19,29.03-29.93,32.27-38.21,0-.36-.18-.54-.54-.54-12.06,4.32-26.37,14.8-42.93,31.46-16.56,16.65-24.84,27.13-24.84,31.45ZM237.87,36.99c1.08-1.08,1.62-1.93,1.62-2.57s-.81-.94-2.43-.94c-10.98,0-24.98,3.74-41.98,11.21-17.01,7.47-34.38,17.33-52.11,29.56-17.73,12.24-35.1,27.32-52.11,45.23-17.01,17.91-30.47,36.23-40.36,54.94-.54.72-.81,1.4-.81,2.02s.45.95,1.35.95c10.08,0,33.97-14.72,71.69-44.15,37.71-29.43,76.09-61.51,115.15-96.25Z"/>
      <path class="cls-1" d="M197.91,144.18c.18-16.74,6.08-33.97,17.69-51.71,11.61-17.73,26.05-33.3,43.33-46.71,17.28-13.41,36.45-24.39,57.51-32.94,21.06-8.55,40.86-12.83,59.4-12.83,10.62,0,20.47,2.21,29.56,6.62,9.09,4.41,13.63,11.07,13.63,19.98s-5.09,18.54-15.25,28.89c-10.17,10.35-22.32,19.17-36.45,26.46-14.13,7.29-26.51,10.94-37.12,10.94-4.86,0-9.9-1.35-15.12-4.05-5.22-2.7-7.83-6.48-7.83-11.34,0-2.7,2.16-5.04,6.48-7.02,15.3-6.12,26.82-12.06,34.56-17.82,1.62-1.8,2.83-2.7,3.65-2.7s1.21.72,1.21,2.16c0,2.52-3.06,5.49-9.18,8.91-4.32,3.24-6.48,5.04-6.48,5.4s.09.54.27.54c3.6,0,14.58-6.93,32.94-20.79,18.36-13.86,27.54-22.77,27.54-26.73,0-2.52-2.43-3.78-7.29-3.78-17.28,0-34.83,4.1-52.65,12.28-17.82,8.19-33.61,18.45-47.38,30.78-13.77,12.33-26.24,25.38-37.4,39.15-11.16,13.77-19.71,26.55-25.65,38.34-5.94,11.79-8.91,20.93-8.91,27.41,0,3.96,1.89,5.94,5.67,5.94,3.24,0,9.72-1.44,19.44-4.32,9.72-2.88,23.8-8.64,42.25-17.28,18.45-8.64,36.22-18.99,53.33-31.05,1.26-1.08,2.11-1.62,2.56-1.62s.67.36.67,1.08-1.58,3.78-4.72,9.18c-3.15,5.4-7.92,11.97-14.31,19.71-6.39,7.74-13.64,15.25-21.73,22.54-8.1,7.29-17.87,13.55-29.3,18.76-11.43,5.22-21.96,7.83-31.59,7.83s-17.19-1.71-22.68-5.13c-5.49-3.42-9.5-7.65-12.01-12.69-5.22-10.08-8.01-19.17-8.37-27.27l-.27-5.13Z"/>
    </g>
  </g>
</svg>