<svg width="45" height="35" viewBox="0 0 45 35" fill="none" xmlns="http://www.w3.org/2000/svg">
<path d="M4.80784 34.8119C3.5915 34.8119 2.5506 34.3885 1.68515 33.5416C0.819702 32.6948 0.38624 31.6756 0.384766 30.4839V4.51619C0.384766 3.326 0.818227 2.30749 1.68515 1.46065C2.55207 0.613815 3.59297 0.189675 4.80784 0.188232H40.1925C41.4088 0.188232 42.4504 0.612372 43.3174 1.46065C44.1843 2.30893 44.617 3.32744 44.6155 4.51619V30.4839C44.6155 31.6741 44.1828 32.6934 43.3174 33.5416C42.4519 34.3899 41.4103 34.8133 40.1925 34.8119H4.80784ZM22.5002 19.664L4.80784 8.84415V30.4839H40.1925V8.84415L22.5002 19.664ZM22.5002 15.3361L40.1925 4.51619H4.80784L22.5002 15.3361ZM4.80784 8.84415V4.51619V30.4839V8.84415Z" fill="#F8F8F8"/>
</svg>
