<svg width="1127" height="1127" viewBox="0 0 1127 1127" fill="none" xmlns="http://www.w3.org/2000/svg">
<path d="M435.479 747.031V379.969C435.487 375.377 436.73 370.871 439.077 366.924C441.425 362.976 444.791 359.733 448.823 357.534C452.855 355.335 457.404 354.261 461.994 354.424C466.583 354.587 471.045 355.982 474.91 358.462L760.448 541.941C764.063 544.258 767.038 547.446 769.098 551.214C771.159 554.981 772.239 559.206 772.239 563.5C772.239 567.794 771.159 572.019 769.098 575.786C767.038 579.554 764.063 582.742 760.448 585.059L474.91 768.589C471.045 771.069 466.583 772.464 461.994 772.627C457.404 772.79 452.855 771.716 448.823 769.517C444.791 767.318 441.425 764.075 439.077 760.128C436.73 756.18 435.487 751.674 435.479 747.082V747.031Z" fill="white"/>
<path d="M0.208008 563.5C0.208008 252.41 252.409 0.208496 563.5 0.208496C874.59 0.208496 1126.79 252.41 1126.79 563.5C1126.79 874.591 874.59 1126.79 563.5 1126.79C252.409 1126.79 0.208008 874.591 0.208008 563.5ZM563.5 77.021C434.477 77.021 310.74 128.275 219.507 219.507C128.274 310.74 77.0205 434.478 77.0205 563.5C77.0205 692.522 128.274 816.26 219.507 907.493C310.74 998.725 434.477 1049.98 563.5 1049.98C692.522 1049.98 816.26 998.725 907.492 907.493C998.725 816.26 1049.98 692.522 1049.98 563.5C1049.98 434.478 998.725 310.74 907.492 219.507C816.26 128.275 692.522 77.021 563.5 77.021Z" fill="white"/>
</svg>
