<svg width="26" height="26" viewBox="0 0 26 26" fill="none" xmlns="http://www.w3.org/2000/svg">
<path d="M12.781 4.698C17.104 7.635 19.25 9.762 19.25 11.304C19.25 12.796 18.43 14.004 16.854 14.887C16.418 15.132 15.932 14.655 16.169 14.215C16.576 13.457 16.442 12.608 15.708 11.598C14.934 10.533 13.818 9.758 12.343 9.27C12.2431 9.23697 12.1562 9.17329 12.0946 9.08801C12.0331 9.00273 11.9999 8.9002 12 8.795V5.111C12.0001 5.02018 12.0249 4.9311 12.0719 4.85333C12.1188 4.77555 12.186 4.71203 12.2663 4.66957C12.3466 4.62711 12.4369 4.60732 12.5276 4.61233C12.6183 4.61734 12.7059 4.64696 12.781 4.698ZM10.75 20.75C8.98 20.75 7.5 19.607 7.5 18.125C7.5 16.643 8.98 15.5 10.75 15.5C12.52 15.5 14 16.643 14 18.125C14 19.607 12.52 20.75 10.75 20.75Z" fill="white"/>
<path d="M13 7C13.2652 7 13.5196 7.10536 13.7071 7.29289C13.8946 7.48043 14 7.73478 14 8V18C14 18.2652 13.8946 18.5196 13.7071 18.7071C13.5196 18.8946 13.2652 19 13 19C12.7348 19 12.4804 18.8946 12.2929 18.7071C12.1054 18.5196 12 18.2652 12 18V8C12 7.73478 12.1054 7.48043 12.2929 7.29289C12.4804 7.10536 12.7348 7 13 7Z" fill="white"/>
<path fill-rule="evenodd" clip-rule="evenodd" d="M13 24C19.075 24 24 19.075 24 13C24 6.925 19.075 2 13 2C6.925 2 2 6.925 2 13C2 19.075 6.925 24 13 24ZM13 26C20.18 26 26 20.18 26 13C26 5.82 20.18 0 13 0C5.82 0 0 5.82 0 13C0 20.18 5.82 26 13 26Z" fill="white"/>
</svg>
