<svg width="224" height="224" viewBox="0 0 224 224" fill="none" xmlns="http://www.w3.org/2000/svg">
<path d="M213.432 96.9322L149.992 73.8722L126.932 10.4322C125.796 7.3702 123.749 4.72936 121.068 2.86447C118.386 0.999586 115.198 0 111.932 0C108.666 0 105.478 0.999586 102.797 2.86447C100.115 4.72936 98.0688 7.3702 96.9322 10.4322L73.8722 73.8722L10.4322 96.9322C7.3702 98.0688 4.72936 100.115 2.86447 102.797C0.999586 105.478 0 108.666 0 111.932C0 115.198 0.999586 118.386 2.86447 121.068C4.72936 123.749 7.3702 125.796 10.4322 126.932L73.8722 150.002L96.9322 213.432C98.0688 216.494 100.115 219.135 102.797 221C105.478 222.865 108.666 223.864 111.932 223.864C115.198 223.864 118.386 222.865 121.068 221C123.749 219.135 125.796 216.494 126.932 213.432L150.002 149.992L213.432 126.932C216.494 125.796 219.135 123.749 221 121.068C222.865 118.386 223.864 115.198 223.864 111.932C223.864 108.666 222.865 105.478 221 102.797C219.135 100.115 216.494 98.0688 213.432 96.9322ZM141.012 136.232C139.915 136.632 138.918 137.267 138.093 138.093C137.267 138.918 136.632 139.915 136.232 141.012L111.932 207.832L87.6322 141.012C87.2327 139.915 86.5977 138.918 85.7719 138.093C84.9461 137.267 83.9496 136.632 82.8522 136.232L16.0322 111.932L82.8522 87.6322C83.9496 87.2327 84.9461 86.5977 85.7719 85.7719C86.5977 84.9461 87.2327 83.9496 87.6322 82.8522L111.932 16.0322L136.232 82.8522C136.632 83.9496 137.267 84.9461 138.093 85.7719C138.918 86.5977 139.915 87.2327 141.012 87.6322L207.832 111.932L141.012 136.232Z" fill="#F8F8F8"/>
</svg>
