<svg width="491" height="852" viewBox="0 0 491 852" fill="none" xmlns="http://www.w3.org/2000/svg">
<path d="M18.7382 18.7383C6.74004 30.7401 -0.000152588 47.0158 -0.000152588 63.9863C-0.000152588 80.9568 6.74004 97.2326 18.7382 109.234L335.538 426.034L18.7382 742.834C7.08007 754.905 0.629236 771.071 0.775055 787.852C0.920874 804.633 7.65167 820.685 19.5178 832.551C31.3839 844.417 47.4359 851.148 64.2165 851.293C80.9971 851.439 97.1636 844.988 109.234 833.33L471.282 471.282C483.28 459.281 490.021 443.005 490.021 426.034C490.021 409.064 483.28 392.788 471.282 380.786L109.234 18.7383C97.2324 6.74019 80.9567 0 63.9862 0C47.0157 0 30.74 6.74019 18.7382 18.7383Z" fill="white"/>
</svg>
